<svg width="22" height="21" viewBox="0 0 22 21" fill="none" xmlns="http://www.w3.org/2000/svg">
<path d="M8.52092 4.99699H9.41473V9.96115C9.41473 10.29 9.68108 10.5569 10.0104 10.5569H11.7975C12.1269 10.5569 12.3932 10.29 12.3932 9.96115V4.99699H13.287C13.7779 4.99699 14.058 4.43677 13.7636 4.04387L11.3803 0.866805C11.142 0.549098 10.6654 0.549098 10.4272 0.866805L8.04436 4.04387C7.74995 4.43677 8.03006 4.99699 8.52092 4.99699Z" fill="#A38841"/>
<path d="M2.56389 7.3798H3.45717V9.96117C3.45717 10.29 3.72351 10.5569 4.05287 10.5569H5.83997C6.1688 10.5569 6.43567 10.29 6.43567 9.96117V7.3798H7.32948C7.82034 7.3798 8.10045 6.81958 7.80604 6.42668L5.42324 3.24962C5.18496 2.93191 4.70841 2.93191 4.47013 3.24962L2.08733 6.42668C1.79292 6.81958 2.07303 7.3798 2.56389 7.3798Z" fill="#A38841"/>
<path d="M14.4779 7.3798H15.3717V9.96117C15.3717 10.29 15.6381 10.5569 15.9674 10.5569H17.7545C18.0833 10.5569 18.3502 10.29 18.3502 9.96117V7.3798H19.244C19.7349 7.3798 20.015 6.81958 19.7206 6.42668L17.3378 3.24962C17.0995 2.93191 16.623 2.93191 16.3847 3.24962L14.0019 6.42668C13.7075 6.81958 13.9876 7.3798 14.4784 7.3798H14.4779Z" fill="#A38841"/>
<path d="M4.04648 15.8869C4.17992 15.8869 4.289 15.7784 4.289 15.6444C4.289 15.5104 4.17992 15.4019 4.04648 15.4019H3.63611V15.888H3.74784C3.87174 15.888 3.98612 15.8869 4.04648 15.8869Z" fill="#A38841"/>
<path d="M12.5717 16.3947C12.5717 16.9433 12.1269 17.3875 11.5789 17.3875C11.0308 17.3875 10.5861 16.9433 10.5861 16.3947C10.5861 15.8461 11.0303 15.4019 11.5789 15.4019C12.1275 15.4019 12.5717 15.8461 12.5717 16.3947Z" fill="#A38841"/>
<path d="M4.18733 16.6822H3.74784C3.71077 16.6822 3.67317 16.6822 3.63611 16.6822V17.386C3.84791 17.3849 4.08513 17.3844 4.18733 17.3844C4.38113 17.3844 4.53839 17.2266 4.53839 17.0333C4.53839 16.84 4.3806 16.6822 4.18733 16.6822Z" fill="#A38841"/>
<path d="M8.48115 16.3947C8.48115 16.9433 8.03636 17.3875 7.48832 17.3875C6.94027 17.3875 6.49548 16.9433 6.49548 16.3947C6.49548 15.8461 6.94027 15.4019 7.48832 15.4019C8.03636 15.4019 8.48115 15.8461 8.48115 16.3947Z" fill="#A38841"/>
<path d="M18.886 11.8277H2.92129C1.71666 11.8277 0.737061 12.8073 0.737061 14.0119V18.7775C0.737061 19.9821 1.71666 20.9617 2.92129 20.9617H18.886C20.0907 20.9617 21.0703 19.9821 21.0703 18.7775V14.0119C21.0703 12.8073 20.0907 11.8277 18.886 11.8277ZM4.18735 18.1786C3.98296 18.1786 3.24059 18.1818 3.24059 18.1818H3.239C3.13416 18.1818 3.03302 18.14 2.95889 18.0664C2.88423 17.9917 2.84187 17.8906 2.84187 17.7847V15.0047C2.84187 14.7855 3.01978 14.6076 3.239 14.6076H4.0465C4.61837 14.6076 5.08329 15.0731 5.08329 15.6444C5.08329 15.8361 5.03086 16.0161 4.93926 16.1702C5.18019 16.3799 5.33268 16.6891 5.33268 17.0328C5.33268 17.6645 4.81906 18.1781 4.18735 18.1781V18.1786ZM7.48832 18.1818C6.5029 18.1818 5.70122 17.3801 5.70122 16.3947C5.70122 15.4093 6.5029 14.6076 7.48832 14.6076C8.47374 14.6076 9.27542 15.4093 9.27542 16.3947C9.27542 17.3801 8.47374 18.1818 7.48832 18.1818ZM11.5788 18.1818C10.5934 18.1818 9.79169 17.3801 9.79169 16.3947C9.79169 15.4093 10.5934 14.6076 11.5788 14.6076C12.5642 14.6076 13.3659 15.4093 13.3659 16.3947C13.3659 17.3801 12.5642 18.1818 11.5788 18.1818ZM16.3587 17.252C16.2623 17.7905 15.7498 18.1818 15.1398 18.1818C14.6494 18.1818 14.1893 17.9843 13.8769 17.6391C13.7297 17.4765 13.7418 17.2255 13.9044 17.0783C14.067 16.9311 14.318 16.9433 14.4652 17.1058C14.6245 17.2822 14.8771 17.3875 15.1392 17.3875C15.3786 17.3875 15.5522 17.2446 15.5761 17.1122C15.6073 16.9375 15.3293 16.821 15.243 16.7887C14.8104 16.6288 14.426 16.4583 14.4101 16.4508C14.391 16.4424 14.3725 16.4323 14.355 16.4207C14.0453 16.2189 13.8859 15.8652 13.9388 15.4972C13.995 15.1064 14.2798 14.7887 14.6823 14.6674C15.4675 14.4313 16.1125 14.9629 16.1395 14.9857C16.3073 15.1265 16.329 15.377 16.1877 15.5454C16.0473 15.7127 15.7985 15.7349 15.6306 15.5957C15.619 15.5867 15.2758 15.3177 14.9115 15.4278C14.7601 15.4734 14.731 15.5703 14.7251 15.61C14.7204 15.6417 14.7214 15.6984 14.7707 15.7413C14.8745 15.7868 15.1853 15.9203 15.5184 16.0431C16.2485 16.3126 16.4312 16.8437 16.3582 17.2509L16.3587 17.252ZM18.7272 15.4019H18.3539V17.7847C18.3539 18.0039 18.176 18.1818 17.9568 18.1818C17.7375 18.1818 17.5596 18.0039 17.5596 17.7847V15.4019H17.1921C16.9729 15.4019 16.795 15.224 16.795 15.0047C16.795 14.7855 16.9729 14.6076 17.1921 14.6076H18.7272C18.9464 14.6076 19.1243 14.7855 19.1243 15.0047C19.1243 15.224 18.9464 15.4019 18.7272 15.4019Z" fill="#A38841"/>
</svg>
