<svg width="23" height="22" viewBox="0 0 23 22" fill="none" xmlns="http://www.w3.org/2000/svg">
<path d="M21.3378 0H9.87943C8.99485 0 8.27527 0.719583 8.27527 1.60417V3.89583C8.27527 4.78042 8.99485 5.5 9.87943 5.5H21.3378C22.2223 5.5 22.9419 4.78042 22.9419 3.89583V1.60417C22.9419 0.719583 22.2223 0 21.3378 0Z" fill="#A38841"/>
<path d="M6.44189 2.75C6.44189 4.2688 5.2107 5.5 3.69189 5.5C2.17309 5.5 0.941895 4.2688 0.941895 2.75C0.941895 1.2312 2.17309 0 3.69189 0C5.2107 0 6.44189 1.2312 6.44189 2.75Z" fill="#A38841"/>
<path d="M21.3377 7.33334H2.54606C1.66606 7.33334 0.941895 8.05751 0.941895 8.93751V20.3958C0.941895 21.2758 1.66606 22 2.54606 22H21.3377C22.2177 22 22.9419 21.2758 22.9419 20.3958V8.93751C22.9419 8.05751 22.2177 7.33334 21.3377 7.33334ZM19.5044 15.125H14.4627C14.0869 15.125 13.7752 14.8133 13.7752 14.4375C13.7752 14.0617 14.0869 13.75 14.4627 13.75H19.5044C19.8802 13.75 20.1919 14.0617 20.1919 14.4375C20.1919 14.8133 19.8802 15.125 19.5044 15.125ZM20.1919 17.1875C20.1919 17.5633 19.8802 17.875 19.5044 17.875H14.4627C14.0869 17.875 13.7752 17.5633 13.7752 17.1875C13.7752 16.8117 14.0869 16.5 14.4627 16.5H19.5044C19.8802 16.5 20.1919 16.8117 20.1919 17.1875ZM19.5044 12.375H14.4627C14.0869 12.375 13.7752 12.0633 13.7752 11.6875C13.7752 11.3117 14.0869 11 14.4627 11H19.5044C19.8802 11 20.1919 11.3117 20.1919 11.6875C20.1919 12.0633 19.8802 12.375 19.5044 12.375ZM11.9419 14.2083C11.9419 16.4817 10.0902 18.3333 7.81689 18.3333C5.54356 18.3333 3.69189 16.4817 3.69189 14.2083C3.69189 11.935 5.54356 10.0833 7.81689 10.0833C10.0902 10.0833 11.9419 11.935 11.9419 14.2083Z" fill="#A38841"/>
</svg>