<svg width="20" height="15" viewBox="0 0 20 15" fill="none" xmlns="http://www.w3.org/2000/svg">
<path d="M4.40637 12.0088C8.75545 13.8644 12.4568 14.2254 16.6514 11.3379C16.6204 11.3885 15.7909 12.7321 13.6093 13.4203C14.0703 14.1091 14.7004 14.8983 14.7004 14.8983C16.0986 14.8983 17.4664 14.4615 18.6493 13.6217C19.5713 12.9496 20.0937 11.7907 19.9861 10.5813C19.8018 8.51558 19.356 6.49971 18.6645 4.56828C17.7881 2.04911 15.6832 0.302513 13.2402 0.0505297C13.0249 0.0339081 12.8716 0.0339081 12.7792 0.0339081L12.5335 0.302513C15.3451 1.17614 16.7433 2.53646 16.7743 2.58699C12.4562 0.201454 7.35543 0.168211 3.00757 2.48593C3.00757 2.48593 4.38995 0.991312 7.44787 0.201454L7.26359 0C6.94126 0 6.63352 0.0332432 6.31119 0.0837729C4.05181 0.503967 2.1622 2.20004 1.34785 4.53504C0.641147 6.55024 0.180149 8.66717 0.0110754 10.8173C-0.0813676 11.9596 0.410648 13.0845 1.27122 13.7401C2.4079 14.5632 3.76049 15 5.12767 15C5.12767 15 5.68112 14.2108 6.23395 13.5054C4.16006 12.8332 3.3147 11.4902 3.29949 11.4397L3.68994 11.6577C3.92348 11.788 4.1625 11.9064 4.40698 12.0101L4.40637 12.0088ZM6.8178 10.5481C5.81917 10.5142 5.03523 9.59066 5.06625 8.48167C5.09666 7.44049 5.86539 6.60077 6.8178 6.56686C7.81643 6.60077 8.59976 7.52427 8.56935 8.6326C8.52313 9.67377 7.77021 10.5142 6.8178 10.5474V10.5481ZM13.0863 10.5481C12.0877 10.5142 11.3043 9.59066 11.3347 8.48167C11.3651 7.44049 12.1339 6.60077 13.0863 6.56686C14.0849 6.60077 14.8689 7.52427 14.8378 8.6326C14.8074 9.67377 14.0387 10.5142 13.0863 10.5474V10.5481Z" fill="#C9C9C9"/>
</svg>
