<svg width="18" height="14" viewBox="0 0 18 14" fill="none" xmlns="http://www.w3.org/2000/svg">
<path d="M16.5637 1.64551L18 0.295668V0H13.0242L9.47812 8.67154L5.44406 0H0.227344V0.295207L1.905 2.27968C2.06859 2.42613 2.15391 2.64074 2.13234 2.85674V10.6551C2.18438 10.936 2.09109 11.2248 1.89 11.4288L0 13.679V13.971H5.35875V13.6758L3.46875 11.4288C3.26391 11.2239 3.16734 10.9402 3.20859 10.6551V3.90954L7.9125 13.9747H8.45906L12.5039 3.90954V11.9276C12.5039 12.139 12.5039 12.1827 12.3628 12.3209L10.9078 13.7039V14H17.9667V13.7048L16.5642 12.3554C16.4414 12.2642 16.3777 12.1109 16.4039 11.9616V2.03882C16.3777 1.88914 16.4405 1.73578 16.5637 1.64505V1.64551Z" fill="#C9C9C9"/>
</svg>
