<svg width="22" height="22" viewBox="0 0 22 22" fill="none" xmlns="http://www.w3.org/2000/svg">
<path d="M15.6458 14.618H13.6436L13.6002 13.1707H15.2846L16.2494 11.8856C15.5517 10.6541 16.4587 9.19053 17.8174 9.19053C18.8167 9.19053 19.6266 10.0004 19.6266 10.9997C19.6266 12.1401 18.57 13.0308 17.4043 12.757L16.2253 14.3286C16.0884 14.5107 15.8743 14.618 15.6464 14.618H15.6458Z" fill="#A38841"/>
<path d="M2.61971 14.2562C1.62045 14.2562 0.810547 13.4463 0.810547 12.447C0.810547 11.4478 1.62045 10.6379 2.61971 10.6379C3.36147 10.6379 3.99709 11.0847 4.27631 11.7234H8.32643L8.28301 13.1707H4.27631C3.99709 13.8093 3.36147 14.2562 2.61971 14.2562Z" fill="#A38841"/>
<path d="M21.0732 16.789C21.0732 17.7883 20.2633 18.5982 19.2641 18.5982C18.5223 18.5982 17.8867 18.1513 17.6075 17.5127H13.7292L13.6858 16.0654H17.6069C17.8861 15.4267 18.5217 14.9799 19.2635 14.9799C20.2633 14.9799 21.0732 15.7898 21.0732 16.789Z" fill="#A38841"/>
<path d="M6.59994 16.0654L5.63505 17.3505C6.33278 18.5819 5.42579 20.0455 4.0671 20.0455C3.06784 20.0455 2.25793 19.2356 2.25793 18.2364C2.25793 17.096 3.31449 16.2053 4.4802 16.4791L5.65917 14.9075C5.79606 14.7254 6.01015 14.618 6.2381 14.618H8.24025L8.19683 16.0654H6.59994Z" fill="#A38841"/>
<path d="M19.2899 7.32347C17.5706 6.34471 15.0945 5.67592 12.2854 5.51491L12.6967 19.3225C12.7263 20.3127 11.9326 21.131 10.9418 21.131C9.95101 21.131 9.15739 20.3127 9.18633 19.3225L9.59762 5.51853C6.78738 5.68799 4.31183 6.36461 2.59372 7.35001C2.3917 7.46579 2.17038 7.23724 2.2928 7.03943C3.79803 4.60007 6.33629 2.76196 9.68988 2.38927L9.71461 1.57092C9.72607 1.18014 10.0469 0.868965 10.4383 0.868965H11.4454C11.8368 0.868965 12.157 1.18014 12.169 1.57092L12.1938 2.38746C15.5407 2.75291 18.0802 4.58138 19.5909 7.0123C19.7133 7.2095 19.4926 7.43866 19.2899 7.32347Z" fill="#A38841"/>
</svg>
