<svg width="22" height="22" viewBox="0 0 22 22" fill="none" xmlns="http://www.w3.org/2000/svg">
<path d="M14.9391 13.4926L14.7644 13.3948L14.5721 13.9925L15.0685 15.4815C15.0929 15.5503 15.0929 15.6254 15.0685 15.6947L14.5861 17.2082L15.0265 18.8441C15.0627 18.9688 15.0265 19.1039 14.9322 19.1936C14.8401 19.2839 14.7055 19.316 14.5826 19.2775L14.0548 19.1202H13.9919L13.3207 18.9L12.2721 19.3579C12.2272 19.3783 12.1783 19.3894 12.1288 19.3894C12.0804 19.3894 12.0327 19.3789 11.989 19.3579L10.9683 18.9105L9.95109 19.3579C9.86254 19.3999 9.76001 19.3999 9.67145 19.3579L8.65077 18.9105L7.63359 19.3579C7.54504 19.3999 7.4425 19.3999 7.35395 19.3579L6.32977 18.9L5.08189 19.2705C4.98401 19.2997 4.87798 19.2845 4.79176 19.2286L4.73933 19.1831C4.64553 19.0934 4.60883 18.9583 4.64495 18.8336L5.08538 17.1873L4.67291 15.9289L4.603 15.7087C4.57854 15.64 4.57854 15.5642 4.603 15.4955L5.08189 14.0065L4.603 12.5174C4.57854 12.4487 4.57854 12.373 4.603 12.3042L5.08189 10.8152L4.603 9.32615C4.57854 9.25741 4.57854 9.18167 4.603 9.11293L5.08538 7.61341L4.64495 5.96359C4.60883 5.83892 4.64495 5.70377 4.73933 5.61405C4.83138 5.52375 4.96595 5.49171 5.08888 5.53016L6.33327 5.8797L7.38191 5.4218C7.47221 5.38219 7.57475 5.38219 7.66505 5.4218L8.68223 5.86921L9.69942 5.4218C9.7402 5.40957 9.78273 5.40491 9.82526 5.40782V4.38367C9.82526 4.13841 9.86254 3.89374 9.93711 3.66013H4.23248C3.6534 3.66013 3.18384 4.12968 3.18384 4.70875V20.0884C3.18384 20.6675 3.6534 21.1371 4.23248 21.1371H15.418C15.9971 21.1371 16.4667 20.6675 16.4667 20.0884V13.7688C16.3513 13.7886 16.2342 13.7979 16.1171 13.7967C15.7052 13.7962 15.2998 13.6919 14.9391 13.4926Z" fill="#A38841"/>
<path d="M5.47697 18.4211L6.25297 18.1939C6.32987 18.166 6.41376 18.166 6.49066 18.1939L7.51134 18.6448L8.52853 18.1939C8.61766 18.1549 8.71903 18.1549 8.80816 18.1939L9.82535 18.6588L10.8425 18.2079C10.9317 18.1689 11.033 18.1689 11.1222 18.2079L12.1429 18.6588L13.0761 18.2464L8.32579 13.4892C8.25996 13.4233 8.17082 13.386 8.07761 13.386C7.9844 13.386 7.89526 13.4233 7.82943 13.4892L5.40356 15.915L5.78108 17.0859C5.79914 17.1488 5.79914 17.2152 5.78108 17.2782L5.47697 18.4211Z" fill="#A38841"/>
<path d="M19.2631 20.0884H17.8649V21.4866H19.2631V20.0884Z" fill="#A38841"/>
<path d="M2.13525 2.26196H0.737061V3.66012H2.13525V2.26196Z" fill="#A38841"/>
<path d="M20.8186 2.87016L16.9561 0.730985C16.4347 0.440868 15.8003 0.440868 15.2783 0.730985L11.4158 2.87016C10.8681 3.17776 10.5279 3.75566 10.5244 4.38366V9.22827C10.5267 9.85744 10.867 10.4371 11.4158 10.7453L15.2783 12.8809C15.8008 13.167 16.4329 13.167 16.9561 12.8809L20.8186 10.7453C21.3674 10.4371 21.7076 9.85744 21.71 9.22827V4.38425C21.7065 3.75624 21.3662 3.17834 20.8186 2.87074V2.87016ZM14.719 8.20412C14.719 8.39695 14.5623 8.55366 14.3694 8.55366C14.2454 8.55308 14.1312 8.48608 14.0688 8.37889L12.6217 6.45643V8.20412C12.6217 8.39695 12.465 8.55366 12.2722 8.55366C12.0793 8.55366 11.9226 8.39695 11.9226 8.20412V5.40781C11.9226 5.21498 12.0793 5.05827 12.2722 5.05827C12.4056 5.06002 12.5256 5.1375 12.5833 5.25751C12.578 5.24178 12.571 5.22605 12.5623 5.21207L14.0199 7.1555V5.40781C14.0199 5.21498 14.1766 5.05827 14.3694 5.05827C14.5623 5.05827 14.719 5.21498 14.719 5.40781V8.20412ZM17.1658 6.45643C17.3587 6.45643 17.5154 6.61314 17.5154 6.80597C17.5154 6.9988 17.3587 7.1555 17.1658 7.1555H16.1172V8.20412C16.1172 8.39695 15.9605 8.55366 15.7676 8.55366C15.5748 8.55366 15.4181 8.39695 15.4181 8.20412V5.40781C15.4181 5.21498 15.5748 5.05827 15.7676 5.05827H17.1658C17.3587 5.05827 17.5154 5.21498 17.5154 5.40781C17.5154 5.60064 17.3587 5.75735 17.1658 5.75735H16.1172V6.45643H17.1658ZM19.9622 5.75735H19.6127V8.20412C19.6127 8.39695 19.456 8.55366 19.2631 8.55366C19.0703 8.55366 18.9136 8.39695 18.9136 8.20412V5.75735H18.564C18.3712 5.75735 18.2145 5.60064 18.2145 5.40781C18.2145 5.21498 18.3712 5.05827 18.564 5.05827H19.9622C20.1551 5.05827 20.3118 5.21498 20.3118 5.40781C20.3118 5.60064 20.1551 5.75735 19.9622 5.75735Z" fill="#A38841"/>
<path d="M9.4757 9.95183C9.4757 9.38616 9.13489 8.87641 8.61231 8.66028C8.08974 8.44415 7.48851 8.56358 7.08886 8.96321C6.68863 9.36285 6.5692 9.96406 6.78592 10.4866C7.00206 11.0092 7.51182 11.35 8.0775 11.35C8.84942 11.35 9.4757 10.7237 9.4757 9.95183Z" fill="#A38841"/>
</svg>
