<svg width="23" height="19" viewBox="0 0 23 19" fill="none" xmlns="http://www.w3.org/2000/svg">
<path d="M22.2245 19H1.65929C1.26293 19 0.941895 18.6789 0.941895 18.2826C0.941895 17.8862 1.26293 17.5652 1.65929 17.5652H22.2245C22.6209 17.5652 22.9419 17.8862 22.9419 18.2826C22.9419 18.6789 22.6209 19 22.2245 19Z" fill="#A38841"/>
<path d="M19.8333 0.347809H16.9637C16.1716 0.347809 15.5289 0.990472 15.5289 1.78259V18.2826C15.5289 18.679 15.85 19 16.2463 19H20.5507C20.947 19 21.2681 18.679 21.2681 18.2826V1.78259C21.2681 0.990472 20.6254 0.347809 19.8333 0.347809Z" fill="#A38841"/>
<path d="M13.3767 6.08694H10.5072C9.71505 6.08694 9.07239 6.72961 9.07239 7.52173V18.2826C9.07239 18.679 9.39342 19 9.78978 19H14.0941C14.4905 19 14.8115 18.679 14.8115 18.2826V7.52173C14.8115 6.72961 14.1689 6.08694 13.3767 6.08694Z" fill="#A38841"/>
<path d="M6.92019 10.3913H4.05063C3.25851 10.3913 2.61584 11.034 2.61584 11.8261V18.2826C2.61584 18.679 2.93688 19 3.33324 19H7.63758C8.03394 19 8.35498 18.679 8.35498 18.2826V11.8261C8.35498 11.034 7.71231 10.3913 6.92019 10.3913Z" fill="#A38841"/>
<path d="M7.63758 4.65219H3.33324C2.93688 4.65219 2.61584 4.33116 2.61584 3.9348C2.61584 3.53844 2.93688 3.21741 3.33324 3.21741H7.63758C8.03394 3.21741 8.35498 3.53844 8.35498 3.9348C8.35498 4.33116 8.03394 4.65219 7.63758 4.65219Z" fill="#A38841"/>
<path d="M9.07237 1.78259H3.33324C2.93688 1.78259 2.61584 1.46156 2.61584 1.0652C2.61584 0.668841 2.93688 0.347809 3.33324 0.347809H9.07237C9.46873 0.347809 9.78976 0.668841 9.78976 1.0652C9.78976 1.46156 9.46873 1.78259 9.07237 1.78259Z" fill="#A38841"/>
<path d="M6.2028 7.52173H3.33324C2.93688 7.52173 2.61584 7.20069 2.61584 6.80434C2.61584 6.40798 2.93688 6.08694 3.33324 6.08694H6.2028C6.59916 6.08694 6.92019 6.40798 6.92019 6.80434C6.92019 7.20069 6.59916 7.52173 6.2028 7.52173Z" fill="#A38841"/>
</svg>
