<svg width="20" height="20" viewBox="0 0 20 20" fill="none" xmlns="http://www.w3.org/2000/svg">
<path d="M16.4399 10.5782C16.6784 11.251 17.3214 11.7346 18.0753 11.7346C19.0318 11.7346 19.81 10.9565 19.81 9.99999C19.81 9.04352 19.0318 8.26539 18.0753 8.26539C17.3219 8.26539 16.6789 8.74902 16.4399 9.42179H14.7896C14.6812 8.50797 14.3199 7.67074 13.7771 6.98255L17.3281 3.43161C17.5542 3.54057 17.8076 3.60122 18.0753 3.60122C19.0318 3.60122 19.81 2.82309 19.81 1.86661C19.81 0.910136 19.0318 0.132004 18.0753 0.132004C17.1189 0.132004 16.3407 0.910136 16.3407 1.86661C16.3407 2.13387 16.4014 2.38725 16.5103 2.61391L12.9594 6.16484C12.2712 5.6221 11.434 5.26079 10.5202 5.15234V3.50202C11.1929 3.26355 11.6766 2.62059 11.6766 1.86661C11.6766 0.910136 10.8984 0.132004 9.94196 0.132004C8.98549 0.132004 8.20736 0.910136 8.20736 1.86661C8.20736 2.62007 8.69099 3.26303 9.36376 3.50202V5.15234C8.44994 5.26079 7.61271 5.6221 6.92452 6.16484L3.37358 2.61391C3.48254 2.38776 3.54319 2.13438 3.54319 1.86661C3.54319 0.910136 2.76506 0.132004 1.80858 0.132004C0.852107 0.132004 0.0739746 0.910136 0.0739746 1.86661C0.0739746 2.82309 0.852107 3.60122 1.80858 3.60122C2.07584 3.60122 2.32922 3.54057 2.55588 3.43161L6.10681 6.98255C5.56407 7.67074 5.20276 8.50797 5.09431 9.42179H3.444C3.20552 8.74902 2.56256 8.26539 1.80858 8.26539C0.852107 8.26539 0.0739746 9.04352 0.0739746 9.99999C0.0739746 10.9565 0.852107 11.7346 1.80858 11.7346C2.56204 11.7346 3.20501 11.251 3.444 10.5782H5.09431C5.20276 11.492 5.56407 12.3293 6.10681 13.0174L2.55588 16.5684C2.32974 16.4594 2.07635 16.3988 1.80858 16.3988C0.852107 16.3988 0.0739746 17.1769 0.0739746 18.1334C0.0739746 19.0898 0.852107 19.868 1.80858 19.868C2.76506 19.868 3.54319 19.0898 3.54319 18.1334C3.54319 17.8661 3.48254 17.6127 3.37358 17.3861L6.92452 13.8351C7.61271 14.3779 8.44994 14.7392 9.36376 14.8476V16.498C8.69099 16.7364 8.20736 17.3794 8.20736 18.1334C8.20736 19.0898 8.98549 19.868 9.94196 19.868C10.8984 19.868 11.6766 19.0898 11.6766 18.1334C11.6766 17.3799 11.1929 16.737 10.5202 16.498V14.8476C11.434 14.7392 12.2712 14.3779 12.9594 13.8351L16.5103 17.3861C16.4014 17.6122 16.3407 17.8656 16.3407 18.1334C16.3407 19.0898 17.1189 19.868 18.0753 19.868C19.0318 19.868 19.81 19.0898 19.81 18.1334C19.81 17.1769 19.0318 16.3988 18.0753 16.3988C17.8081 16.3988 17.5547 16.4594 17.3281 16.5684L13.7771 13.0174C14.3199 12.3293 14.6812 11.492 14.7896 10.5782H16.4399ZM11.601 11.2181C11.6036 11.5999 11.4576 11.9587 11.1899 12.2306C11.0028 12.4197 10.772 12.5503 10.5197 12.6124V12.6849C10.5197 13.0041 10.2606 13.2631 9.94145 13.2631C9.62228 13.2631 9.36325 13.0041 9.36325 12.6849V12.614C8.74804 12.4593 8.2901 11.9032 8.28599 11.2402C8.28394 10.9205 8.54092 10.6604 8.8606 10.6584H8.86419C9.18182 10.6584 9.44034 10.9148 9.4424 11.2325C9.44291 11.3805 9.56421 11.5007 9.71171 11.5007H9.71325C9.99336 11.4992 9.888 11.5002 10.1758 11.4982C10.4359 11.4961 10.5412 11.1595 10.3346 11.0068L9.94094 10.7154L8.85905 9.91519C8.49774 9.6469 8.28137 9.21878 8.28137 8.76855C8.28137 8.10092 8.74239 7.53968 9.36273 7.38498V7.31456C9.36273 6.9954 9.62177 6.73636 9.94094 6.73636C10.2601 6.73636 10.5191 6.9954 10.5191 7.31456V7.38549C11.1379 7.54122 11.5974 8.10195 11.5974 8.76855C11.5974 9.08772 11.3384 9.34675 11.0192 9.34675C10.7001 9.34675 10.441 9.08772 10.441 8.76855C10.441 8.6195 10.3197 8.49872 10.1717 8.49872H9.70811C9.55906 8.49872 9.43828 8.6195 9.43828 8.76855C9.43828 8.94278 9.5457 8.98338 9.94145 9.27634L11.0233 10.0766C11.3816 10.3423 11.5974 10.7668 11.6005 11.2134V11.2176L11.601 11.2181Z" fill="#A38841"/>
</svg>
