<svg width="19" height="15" viewBox="0 0 19 15" fill="none" xmlns="http://www.w3.org/2000/svg">
<path d="M18.6988 1.74523C18.2766 1.92291 17.838 2.06333 17.3887 2.16472C17.8867 1.716 18.2577 1.15541 18.4672 0.534694C18.4804 0.495377 18.4807 0.453181 18.468 0.413698C18.4554 0.374215 18.4304 0.339309 18.3964 0.313606C18.3624 0.287904 18.321 0.272618 18.2776 0.269776C18.2342 0.266933 18.191 0.276667 18.1535 0.297688C17.5292 0.649592 16.8547 0.914237 16.1508 1.08346C16.1099 1.09312 16.0678 1.098 16.0257 1.09797C15.8963 1.09776 15.7716 1.05255 15.675 0.970891C14.9262 0.344733 13.9623 -0.00049705 12.9643 5.37137e-07C12.5243 0.00129329 12.087 0.0654786 11.6671 0.190397C11.0121 0.384648 10.4214 0.736802 9.95264 1.21247C9.48387 1.68814 9.15309 2.27107 8.99259 2.90432C8.87239 3.3725 8.83915 3.857 8.89438 4.33603C8.89676 4.35567 8.89468 4.37555 8.88829 4.39436C8.88189 4.41317 8.87133 4.43047 8.85732 4.44508C8.84323 4.46028 8.82592 4.47248 8.80652 4.48089C8.78712 4.4893 8.76607 4.49373 8.74474 4.49389H8.72991C5.82235 4.23666 3.20018 2.90696 1.34705 0.749275C1.32515 0.723845 1.29709 0.703822 1.26528 0.690913C1.23346 0.678004 1.19882 0.672593 1.16432 0.675141C1.12982 0.67769 1.09649 0.688123 1.06715 0.705549C1.03782 0.722976 1.01337 0.746879 0.995881 0.775218C0.539216 1.52172 0.35689 2.3911 0.477567 3.24668C0.598244 4.10226 1.01508 4.89551 1.66254 5.50172C1.33594 5.42848 1.0215 5.31293 0.728104 5.1583C0.695626 5.14125 0.659045 5.1325 0.621935 5.13289C0.584826 5.13328 0.548458 5.1428 0.516386 5.16053C0.484315 5.17825 0.457637 5.20357 0.438959 5.23401C0.420282 5.26445 0.410245 5.29896 0.409829 5.33418C0.400103 6.08771 0.621022 6.82772 1.04578 7.4644C1.47053 8.10108 2.08085 8.60707 2.80268 8.92094H2.71512C2.48354 8.92142 2.25243 8.90125 2.02483 8.8607C1.98834 8.85405 1.95066 8.85653 1.91549 8.86789C1.88032 8.87925 1.84887 8.89911 1.82424 8.92551C1.7996 8.9519 1.78263 8.98393 1.775 9.01844C1.76736 9.05295 1.76932 9.08876 1.78068 9.12233C2.01226 9.8044 2.43749 10.4127 3.00961 10.8803C3.58174 11.3479 4.27862 11.6568 5.02366 11.7729C3.77217 12.5714 2.29767 12.9963 0.789721 12.9931H0.315783C0.246127 12.9925 0.178221 13.0138 0.122715 13.0538C0.06721 13.0937 0.0272455 13.15 0.00909005 13.2139C-0.00749496 13.279 -0.00127006 13.3474 0.0268209 13.4088C0.0549118 13.4702 0.103337 13.5213 0.164753 13.5542C1.88123 14.5013 3.83133 15.0002 5.8168 15C7.55364 15 9.17791 14.6729 10.6451 14.0278C11.9936 13.4337 13.1963 12.5785 14.1758 11.517C15.1122 10.506 15.8453 9.34049 16.3389 8.07845C16.8167 6.87513 17.0656 5.60084 17.0741 4.31492V4.256C17.0741 4.15711 17.0976 4.05948 17.1427 3.97035C17.1879 3.88122 17.2536 3.80287 17.3349 3.7411C17.9644 3.25646 18.5135 2.68474 18.9638 2.04512C18.9896 2.0085 19.0022 1.96491 18.9997 1.92092C18.9971 1.87693 18.9796 1.83491 18.9497 1.80121C18.9197 1.76752 18.8791 1.74396 18.8339 1.7341C18.7886 1.72424 18.7412 1.72861 18.6988 1.74655V1.74523Z" fill="#C9C9C9"/>
</svg>
